<svg width="22" height="28" viewBox="0 0 22 28" fill="none" xmlns="http://www.w3.org/2000/svg">
<path d="M10.9375 27.0926C12.6621 27.0926 14.0611 25.5836 14.0611 23.7216H7.814C7.814 25.5836 9.21292 27.0926 10.9375 27.0926ZM21.4546 19.2072C20.5113 18.1138 18.7461 16.4688 18.7461 11.0806C18.7461 6.98804 16.086 3.7119 12.4991 2.90814V1.81047C12.4991 0.879777 11.7998 0.125 10.9375 0.125C10.0752 0.125 9.37601 0.879777 9.37601 1.81047V2.90814C5.7891 3.7119 3.12894 6.98804 3.12894 11.0806C3.12894 16.4688 1.3638 18.1138 0.420444 19.2072C0.127475 19.5469 -0.00240765 19.953 3.37592e-05 20.3507C0.00540485 21.2145 0.633823 22.0362 1.56742 22.0362H20.3077C21.2412 22.0362 21.8702 21.2145 21.875 20.3507C21.8775 19.953 21.7476 19.5464 21.4546 19.2072V19.2072Z" fill="#F1F1F1"/>
</svg>
