<svg width="155" height="31" viewBox="0 0 155 31" fill="none" xmlns="http://www.w3.org/2000/svg">
<path d="M10.4469 25.9007C7.46073 29.1219 2.40329 29.1091 0.990883 24.816C0.714354 23.9754 0.493259 23.1112 0.330644 22.2293C-0.333309 18.6286 0.00745571 14.8965 1.30985 11.5047C2.61224 8.11309 4.81776 5.21414 7.64751 3.17454C10.4773 1.13495 13.8042 0.0463255 17.2075 0.0463257C20.6108 0.0463258 23.9377 1.13495 26.7674 3.17454C29.5972 5.21414 31.8027 8.11309 33.1051 11.5049C34.4075 14.8965 34.7482 18.6286 34.0843 22.2293C33.9217 23.1112 33.7006 23.9754 33.424 24.816C32.0116 29.1091 26.9542 29.1219 23.968 25.9007L19.3584 20.9283C18.918 20.4532 18.9635 19.6698 19.085 19.0109C19.1588 18.6104 19.1209 18.1952 18.976 17.8179C18.8311 17.4405 18.5858 17.118 18.271 16.8911C17.9562 16.6643 17.5861 16.5432 17.2075 16.5432C16.8289 16.5432 16.4588 16.6643 16.144 16.8911C15.8291 17.118 15.5838 17.4405 15.4389 17.8179C15.294 18.1952 15.2561 18.6104 15.33 19.0109C15.4515 19.6698 15.4969 20.4532 15.0565 20.9283L10.4469 25.9007Z" fill="#F1F1F1"/>
<path d="M48.4145 21.4442H53.0398V24.3845H44.8835V8.74805H48.4145V21.4442Z" fill="#F1F1F1"/>
<path d="M59.3494 24.5626C58.2206 24.5626 57.2019 24.3028 56.2933 23.7831C55.3986 23.2633 54.6896 22.5209 54.1665 21.5557C53.6572 20.5904 53.4025 19.4619 53.4025 18.1699C53.4025 16.893 53.664 15.7718 54.1871 14.8065C54.7103 13.8265 55.4261 13.0766 56.3346 12.5569C57.2432 12.0372 58.2619 11.7773 59.3907 11.7773C60.5195 11.7773 61.5382 12.0372 62.4467 12.5569C63.3553 13.0766 64.0711 13.8265 64.5942 14.8065C65.1173 15.7718 65.3789 16.893 65.3789 18.1699C65.3789 19.447 65.1104 20.5755 64.5736 21.5557C64.0505 22.5209 63.3278 23.2633 62.4054 23.7831C61.4969 24.3028 60.4782 24.5626 59.3494 24.5626ZM59.3494 21.266C60.0239 21.266 60.5952 20.9988 61.0633 20.4642C61.5451 19.9296 61.786 19.1649 61.786 18.1699C61.786 17.175 61.5519 16.4103 61.0839 15.8757C60.6296 15.3411 60.0652 15.0738 59.3907 15.0738C58.7024 15.0738 58.1311 15.3411 57.6768 15.8757C57.2225 16.3955 56.9954 17.1602 56.9954 18.1699C56.9954 19.1649 57.2157 19.9296 57.6562 20.4642C58.1105 20.9988 58.6749 21.266 59.3494 21.266Z" fill="#F1F1F1"/>
<path d="M71.0102 11.7773C71.8224 11.7773 72.5314 11.9555 73.1371 12.3119C73.7565 12.6682 74.2315 13.136 74.5619 13.7151V11.9555H78.0928V24.3621C78.0928 25.5055 77.8795 26.5376 77.4527 27.4582C77.0397 28.3938 76.3996 29.1362 75.5324 29.6856C74.6789 30.2351 73.612 30.5099 72.3318 30.5099C70.6248 30.5099 69.2413 30.0718 68.1813 29.1957C67.1214 28.3343 66.5156 27.1612 66.3642 25.6763H69.8539C69.964 26.1515 70.2256 26.5228 70.6386 26.7901C71.0515 27.0721 71.5609 27.2132 72.1666 27.2132C72.8962 27.2132 73.4743 26.983 73.9011 26.5228C74.3416 26.0773 74.5619 25.3571 74.5619 24.3621V22.6025C74.2177 23.1816 73.7428 23.6569 73.1371 24.028C72.5314 24.3844 71.8224 24.5626 71.0102 24.5626C70.0604 24.5626 69.2 24.3028 68.4291 23.7831C67.6582 23.2485 67.0456 22.4985 66.5914 21.5333C66.1509 20.5533 65.9306 19.4248 65.9306 18.1477C65.9306 16.8706 66.1509 15.7495 66.5914 14.7843C67.0456 13.8191 67.6582 13.0766 68.4291 12.5569C69.2 12.0372 70.0604 11.7773 71.0102 11.7773ZM74.5619 18.1699C74.5619 17.2196 74.3141 16.4697 73.8185 15.9203C73.3367 15.3709 72.7447 15.0962 72.0427 15.0962C71.3406 15.0962 70.7418 15.3709 70.2462 15.9203C69.7644 16.4549 69.5235 17.1974 69.5235 18.1477C69.5235 19.098 69.7644 19.8554 70.2462 20.4197C70.7418 20.9691 71.3406 21.2438 72.0427 21.2438C72.7447 21.2438 73.3367 20.9691 73.8185 20.4197C74.3141 19.8702 74.5619 19.1204 74.5619 18.1699Z" fill="#F1F1F1"/>
<path d="M85.2727 24.5626C84.1439 24.5626 83.1252 24.3028 82.2167 23.7831C81.3219 23.2633 80.6129 22.5209 80.0898 21.5557C79.5805 20.5904 79.3258 19.4619 79.3258 18.1699C79.3258 16.893 79.5873 15.7718 80.1105 14.8065C80.6336 13.8265 81.3494 13.0766 82.2579 12.5569C83.1665 12.0372 84.1852 11.7773 85.314 11.7773C86.4428 11.7773 87.4615 12.0372 88.37 12.5569C89.2786 13.0766 89.9944 13.8265 90.5175 14.8065C91.0406 15.7718 91.3022 16.893 91.3022 18.1699C91.3022 19.447 91.0338 20.5755 90.4969 21.5557C89.9738 22.5209 89.2511 23.2633 88.3287 23.7831C87.4202 24.3028 86.4015 24.5626 85.2727 24.5626ZM85.2727 21.266C85.9472 21.266 86.5185 20.9988 86.9866 20.4642C87.4684 19.9296 87.7093 19.1649 87.7093 18.1699C87.7093 17.175 87.4752 16.4103 87.0072 15.8757C86.5529 15.3411 85.9885 15.0738 85.314 15.0738C84.6257 15.0738 84.0544 15.3411 83.6001 15.8757C83.1459 16.3955 82.9187 17.1602 82.9187 18.1699C82.9187 19.1649 83.139 19.9296 83.5795 20.4642C84.0338 20.9988 84.5982 21.266 85.2727 21.266Z" fill="#F1F1F1"/>
<path d="M94.3318 10.6636C93.7123 10.6636 93.203 10.4706 92.8038 10.0845C92.4183 9.68356 92.2256 9.19353 92.2256 8.61441C92.2256 8.02043 92.4183 7.5304 92.8038 7.14431C93.203 6.74337 93.7123 6.54291 94.3318 6.54291C94.9375 6.54291 95.4331 6.74337 95.8185 7.14431C96.2177 7.5304 96.4173 8.02043 96.4173 8.61441C96.4173 9.19353 96.2177 9.68356 95.8185 10.0845C95.4331 10.4706 94.9375 10.6636 94.3318 10.6636ZM96.0869 11.9555V24.3845H92.556V11.9555H96.0869Z" fill="#F1F1F1"/>
<path d="M101.557 13.7151C101.901 13.136 102.376 12.6682 102.982 12.3119C103.588 11.9555 104.297 11.7773 105.109 11.7773C106.059 11.7773 106.919 12.0372 107.69 12.5569C108.461 13.0766 109.067 13.8191 109.507 14.7843C109.961 15.7495 110.189 16.8706 110.189 18.1477C110.189 19.4248 109.961 20.5533 109.507 21.5333C109.067 22.4985 108.461 23.2485 107.69 23.7831C106.919 24.3028 106.059 24.5626 105.109 24.5626C104.31 24.5626 103.602 24.3844 102.982 24.028C102.376 23.6716 101.901 23.2114 101.557 22.6471V30.3093H98.0263V11.9555H101.557V13.7151ZM106.596 18.1477C106.596 17.1974 106.348 16.4549 105.852 15.9203C105.37 15.3709 104.772 15.0962 104.056 15.0962C103.354 15.0962 102.755 15.3709 102.259 15.9203C101.778 16.4697 101.537 17.2196 101.537 18.1699C101.537 19.1204 101.778 19.8702 102.259 20.4197C102.755 20.9691 103.354 21.2438 104.056 21.2438C104.758 21.2438 105.357 20.9691 105.852 20.4197C106.348 19.8554 106.596 19.098 106.596 18.1477Z" fill="#F1F1F1"/>
<path d="M116.109 24.5626C115.104 24.5626 114.209 24.377 113.424 24.0058C112.64 23.6345 112.02 23.1297 111.566 22.4911C111.112 21.8377 110.857 21.1101 110.802 20.3082H114.292C114.333 20.7389 114.519 21.0878 114.849 21.3551C115.18 21.6224 115.586 21.7561 116.068 21.7561C116.508 21.7561 116.845 21.667 117.079 21.4888C117.327 21.2958 117.451 21.0507 117.451 20.7537C117.451 20.3973 117.279 20.1375 116.935 19.9742C116.591 19.796 116.033 19.603 115.262 19.395C114.436 19.1871 113.748 18.9718 113.197 18.7491C112.647 18.5116 112.172 18.1477 111.773 17.6577C111.373 17.1528 111.174 16.4771 111.174 15.6308C111.174 14.918 111.353 14.272 111.711 13.6929C112.082 13.0989 112.619 12.6311 113.321 12.2896C114.037 11.9481 114.884 11.7773 115.861 11.7773C117.306 11.7773 118.442 12.1634 119.268 12.9355C120.108 13.7078 120.59 14.7323 120.714 16.0094H117.451C117.396 15.5788 117.217 15.2373 116.914 14.9847C116.625 14.7323 116.24 14.6061 115.758 14.6061C115.345 14.6061 115.028 14.6952 114.808 14.8734C114.588 15.0367 114.478 15.2669 114.478 15.5639C114.478 15.9203 114.65 16.1876 114.994 16.3658C115.352 16.544 115.902 16.7222 116.646 16.9003C117.499 17.1379 118.194 17.3756 118.731 17.6131C119.268 17.8359 119.736 18.207 120.135 18.7269C120.548 19.2317 120.762 19.9147 120.776 20.7761C120.776 21.5037 120.583 22.157 120.197 22.7362C119.826 23.3005 119.282 23.746 118.566 24.0726C117.864 24.3993 117.045 24.5626 116.109 24.5626Z" fill="#F1F1F1"/>
<path d="M133.694 11.9556V24.3845H130.163V22.6917C129.805 23.2411 129.316 23.6866 128.697 24.0281C128.091 24.3548 127.417 24.5181 126.673 24.5181C125.792 24.5181 125.014 24.3103 124.34 23.8944C123.665 23.4638 123.142 22.8476 122.771 22.0458C122.399 21.2439 122.213 20.301 122.213 19.2169V11.9556H125.723V18.7046C125.723 19.5362 125.923 20.1821 126.322 20.6425C126.721 21.1028 127.258 21.333 127.933 21.333C128.621 21.333 129.165 21.1028 129.564 20.6425C129.963 20.1821 130.163 19.5362 130.163 18.7046V11.9556H133.694Z" fill="#F1F1F1"/>
<path d="M150.313 11.8219C151.744 11.8219 152.88 12.2896 153.72 13.2252C154.573 14.1606 155 15.4599 155 17.1231V24.3845H151.49V17.6355C151.49 16.8336 151.29 16.2173 150.891 15.7867C150.505 15.3412 149.969 15.1184 149.28 15.1184C148.592 15.1184 148.048 15.3412 147.649 15.7867C147.264 16.2173 147.071 16.8336 147.071 17.6355V24.3845H143.56V17.6355C143.56 16.8336 143.361 16.2173 142.962 15.7867C142.576 15.3412 142.039 15.1184 141.351 15.1184C140.663 15.1184 140.119 15.3412 139.72 15.7867C139.334 16.2173 139.142 16.8336 139.142 17.6355V24.3845H135.611V11.9556H139.142V13.5147C139.5 12.995 139.968 12.5866 140.546 12.2896C141.124 11.9778 141.778 11.8219 142.507 11.8219C143.375 11.8219 144.146 12.0223 144.82 12.4233C145.508 12.8242 146.045 13.3959 146.431 14.1384C146.83 13.4553 147.374 12.8984 148.062 12.4678C148.75 12.0372 149.501 11.8219 150.313 11.8219Z" fill="#F1F1F1"/>
</svg>
