<svg width="25" height="22" viewBox="0 0 25 22" fill="none" xmlns="http://www.w3.org/2000/svg">
<path d="M2.5 21.9352C1.8125 21.9352 1.22417 21.6714 0.735 21.1437C0.245 20.6151 0 19.98 0 19.2384V3.05787C0 2.31626 0.245 1.68163 0.735 1.15396C1.22417 0.625397 1.8125 0.361115 2.5 0.361115H22.5C23.1875 0.361115 23.7763 0.625397 24.2663 1.15396C24.7554 1.68163 25 2.31626 25 3.05787V19.2384C25 19.98 24.7554 20.6151 24.2663 21.1437C23.7763 21.6714 23.1875 21.9352 22.5 21.9352H2.5ZM12.5 12.4965L22.5 5.75463V3.05787L12.5 9.79977L2.5 3.05787V5.75463L12.5 12.4965Z" fill="#F1F1F1"/>
</svg>
