<svg width="32" height="35" viewBox="0 0 32 35" fill="none" xmlns="http://www.w3.org/2000/svg">
<g filter="url(#filter0_d_4_153)">
<path d="M27.3389 7.38538L25.1779 9.71648C24.9575 9.95414 24.6013 9.95414 24.3809 9.71648L19.1776 4.10363C18.9573 3.86597 18.9573 3.48166 19.1776 3.244L21.3386 0.912896C22.2152 -0.0326924 23.6403 -0.0326924 24.5216 0.912896L27.3389 3.95193C28.2202 4.89752 28.2202 6.43473 27.3389 7.38538ZM17.3213 5.24642L5.01143 18.5251L4.01764 24.6689C3.8817 25.4982 4.55204 26.2162 5.32082 26.0747L11.0164 24.9976L23.3262 11.7189C23.5465 11.4812 23.5465 11.0969 23.3262 10.8593L18.1229 5.24642C17.8979 5.00876 17.5416 5.00876 17.3213 5.24642V5.24642ZM9.81631 17.3874C9.55849 17.1093 9.55849 16.6643 9.81631 16.3862L17.0353 8.59897C17.2932 8.32085 17.7057 8.32085 17.9635 8.59897C18.2213 8.87708 18.2213 9.32206 17.9635 9.60018L10.7445 17.3874C10.4866 17.6655 10.0741 17.6655 9.81631 17.3874V17.3874ZM8.12405 21.64H10.3741V23.4756L7.35058 24.047L5.89271 22.4743L6.42242 19.2128H8.12405V21.64Z" fill="#F1F1F1"/>
</g>
<defs>
<filter id="filter0_d_4_153" x="0" y="0.203705" width="31.9999" height="33.8889" filterUnits="userSpaceOnUse" color-interpolation-filters="sRGB">
<feFlood flood-opacity="0" result="BackgroundImageFix"/>
<feColorMatrix in="SourceAlpha" type="matrix" values="0 0 0 0 0 0 0 0 0 0 0 0 0 0 0 0 0 0 127 0" result="hardAlpha"/>
<feOffset dy="4"/>
<feGaussianBlur stdDeviation="2"/>
<feComposite in2="hardAlpha" operator="out"/>
<feColorMatrix type="matrix" values="0 0 0 0 0 0 0 0 0 0 0 0 0 0 0 0 0 0 0.25 0"/>
<feBlend mode="normal" in2="BackgroundImageFix" result="effect1_dropShadow_4_153"/>
<feBlend mode="normal" in="SourceGraphic" in2="effect1_dropShadow_4_153" result="shape"/>
</filter>
</defs>
</svg>
